<svg xmlns="http://www.w3.org/2000/svg" width="164" height="64" viewBox="0 0 164 64" fill="none">
  <g clip-path="url(#clip0_131_1921)">
    <path d="M38.5239 46.553C36.9885 46.553 35.7066 46.2537 34.6759 45.6538C33.6452 45.0551 32.8669 44.177 32.3422 43.0207C31.8163 41.8645 31.5216 40.4452 31.4594 38.763L35.4648 37.9741C35.507 38.9626 35.6279 39.8348 35.8275 40.5919C36.0271 41.3491 36.3323 41.9325 36.742 42.3422C37.1516 42.7519 37.6928 42.9574 38.3666 42.9574C39.1238 42.9574 39.6603 42.732 39.9749 42.2788C40.2907 41.8269 40.448 41.254 40.448 40.5602C40.448 39.4462 40.1956 38.5317 39.6908 37.8168C39.186 37.1019 38.5134 36.387 37.6729 35.6721L34.4564 32.8336C33.5525 32.0565 32.8317 31.189 32.2964 30.2311C31.7599 29.2744 31.4923 28.0922 31.4923 26.6824C31.4923 24.6644 32.0804 23.1078 33.259 22.0149C34.4364 20.922 36.0447 20.375 38.0849 20.375C39.2835 20.375 40.2813 20.5593 41.0807 20.9267C41.8801 21.2953 42.5152 21.8048 42.9883 22.4563C43.4614 23.1078 43.8135 23.8498 44.0448 24.6797C44.2761 25.5108 44.4228 26.3877 44.4862 27.3128L40.5125 28.0065C40.4703 27.2083 40.3811 26.4922 40.2449 25.8618C40.1075 25.2314 39.8669 24.7372 39.5194 24.3792C39.1719 24.0223 38.6625 23.8427 37.9898 23.8427C37.3172 23.8427 36.7643 24.0693 36.3968 24.5212C36.0282 24.9732 35.8451 25.5355 35.8451 26.2081C35.8451 27.0709 36.0235 27.78 36.3816 28.3364C36.7384 28.894 37.2538 29.4669 37.9264 30.055L41.1124 32.8618C42.163 33.7446 43.0622 34.7811 43.8089 35.9679C44.5555 37.1559 44.9288 38.5916 44.9288 40.2726C44.9288 41.4923 44.6611 42.5747 44.1246 43.5208C43.5882 44.467 42.8416 45.2077 41.8848 45.7442C40.9281 46.2807 39.8082 46.5483 38.5263 46.5483L38.5239 46.553Z" fill="#FAFAFA"/>
    <path d="M50.3193 46.2066V20.6602H54.9246V46.2066H50.3193Z" fill="#FAFAFA"/>
    <path d="M61.3892 46.2066V20.6602H68.8951C70.4294 20.6602 71.6749 20.9442 72.6328 21.5112C73.5896 22.0794 74.2939 22.9047 74.7459 23.987C75.1978 25.0705 75.4244 26.3794 75.4244 27.9137C75.4244 29.5748 75.1403 30.9154 74.5733 31.9355C74.0051 32.9556 73.2116 33.6963 72.1926 34.1589C71.1725 34.6214 69.9693 34.8526 68.5817 34.8526H66.059V46.2066H61.3916H61.3892ZM66.0567 31.5728H67.8234C68.6639 31.5728 69.3213 31.4518 69.7944 31.21C70.2674 30.9682 70.5926 30.5796 70.7722 30.0432C70.9506 29.5067 71.0399 28.7871 71.0399 27.8832C71.0399 26.9793 70.9718 26.2068 70.8344 25.6281C70.6971 25.0505 70.4036 24.6244 69.9517 24.3509C69.4997 24.0774 68.7895 23.9412 67.8234 23.9412H66.0567V31.5739V31.5728Z" fill="#FAFAFA"/>
    <path d="M86.1469 46.553C84.6114 46.553 83.3295 46.2537 82.2989 45.6538C81.2682 45.0551 80.4899 44.177 79.9651 43.0207C79.4392 41.8645 79.1446 40.4452 79.0824 38.763L83.0877 37.9741C83.13 38.9626 83.2509 39.8348 83.4505 40.5919C83.65 41.3491 83.9552 41.9325 84.3649 42.3422C84.7746 42.7519 85.3158 42.9574 85.9896 42.9574C86.7468 42.9574 87.2833 42.732 87.5979 42.2788C87.9136 41.8269 88.0709 41.254 88.0709 40.5602C88.0709 39.4462 87.8186 38.5317 87.3138 37.8168C86.809 37.1019 86.1364 36.387 85.2947 35.6721L82.0782 32.8336C81.1743 32.0565 80.4535 31.189 79.9182 30.2311C79.3817 29.2744 79.1141 28.0922 79.1141 26.6824C79.1141 24.6644 79.7022 23.1078 80.8808 22.0149C82.0582 20.922 83.6665 20.375 85.7067 20.375C86.9053 20.375 87.9031 20.5593 88.7025 20.9267C89.5008 21.2953 90.137 21.8048 90.6101 22.4563C91.0832 23.1078 91.4353 23.8498 91.6666 24.6797C91.8979 25.5108 92.0446 26.3877 92.108 27.3128L88.1343 28.0065C88.0921 27.2083 88.0029 26.4922 87.8667 25.8618C87.7293 25.2314 87.4887 24.7372 87.1412 24.3792C86.7937 24.0223 86.2843 23.8427 85.6116 23.8427C84.939 23.8427 84.3861 24.0693 84.0186 24.5212C83.65 24.9732 83.4669 25.5355 83.4669 26.2081C83.4669 27.0709 83.6453 27.78 84.0034 28.3364C84.3602 28.894 84.8756 29.4669 85.5482 30.055L88.7342 32.8618C89.7848 33.7446 90.684 34.7811 91.4307 35.9679C92.1773 37.1559 92.5506 38.5916 92.5506 40.2726C92.5506 41.4923 92.2829 42.5747 91.7464 43.5208C91.21 44.467 90.4634 45.2077 89.5066 45.7442C88.5499 46.2807 87.43 46.5483 86.1481 46.5483L86.1469 46.553Z" fill="#FAFAFA"/>
    <path d="M95.7035 46.2066L100.812 20.6602H105.796L110.904 46.2066H106.583L105.574 40.3089H101.127L100.086 46.2066H95.7024H95.7035ZM101.601 37.3437H105.07L103.335 26.6201L101.6 37.3437H101.601Z" fill="#FAFAFA"/>
    <path d="M118.127 46.2066L112.987 20.6602H117.119L120.494 38.7324L123.648 20.6602H127.874L122.734 46.2066H118.129H118.127Z" fill="#FAFAFA"/>
    <path d="M136.294 46.2066L131.153 20.6602H135.285L138.66 38.7324L141.814 20.6602H146.04L140.9 46.2066H136.295H136.294Z" fill="#FAFAFA"/>
    <path d="M154.112 46.2066V36.4609L148.94 20.6602H153.293L156.447 30.7839L159.411 20.6602H163.669L158.56 36.4609V46.2066H154.113H154.112Z" fill="#FAFAFA"/>
    <path d="M4.06405 26.6479C2.99228 23.8646 3.35619 20.4286 3.78466 19.3568C3.35619 19.0704 2.44524 18.764 1.51785 19.304C0.716079 19.7712 -0.181956 20.6434 0.0316941 23.7519C0.245344 26.8604 2.35485 30.2213 3.85627 31.5079C5.35769 32.7945 6.96594 33.6691 6.96594 33.5094C6.98589 32.8485 7.57402 32.0796 7.57402 32.0796C7.57402 32.0796 5.16517 29.5064 4.06405 26.6468V26.6479Z" fill="#FAFAFA"/>
    <path d="M20.4975 26.6479C21.5693 23.8646 21.2054 20.4286 20.7769 19.3568C21.2054 19.0704 22.1163 18.764 23.0437 19.304C23.8455 19.7712 24.7435 20.6434 24.5299 23.7519C24.315 26.8616 22.2067 30.2213 20.7053 31.5079C19.2039 32.7945 17.5956 33.6691 17.5956 33.5094C17.5757 32.8485 16.9875 32.0796 16.9875 32.0796C16.9875 32.0796 19.3964 29.5064 20.4975 26.6468V26.6479Z" fill="#FAFAFA"/>
    <path d="M12.4351 19.7875L11.0347 19.2194C11.3927 19.7453 11.6028 20.378 11.6028 21.0612C11.6028 22.8702 10.1296 24.3423 8.32061 24.3423C6.51163 24.3423 5.03956 22.8714 5.03956 21.0612C5.03956 19.4811 6.16181 18.1582 7.65149 17.8471L6.25572 17.2812C4.92217 18.0149 4.01474 19.4342 4.01474 21.0612C4.01474 23.4348 5.94698 25.3671 8.32061 25.3671C10.6942 25.3671 12.6277 23.4348 12.6277 21.0612C12.6277 20.6187 12.5608 20.1902 12.4363 19.7864L12.4351 19.7875Z" fill="#FAFAFA"/>
    <path d="M11.8235 21.0612C11.8235 23.4348 13.7558 25.3671 16.1306 25.3671C18.5042 25.3671 20.4365 23.4348 20.4365 21.0612C20.4365 19.4342 19.529 18.0149 18.1955 17.2812L16.7997 17.8471C18.2894 18.1582 19.4117 19.4811 19.4117 21.0612C19.4117 22.8702 17.9408 24.3423 16.1306 24.3423C14.3204 24.3423 12.8484 22.8714 12.8484 21.0612C12.8484 20.378 13.0585 19.7453 13.4165 19.2194L12.0161 19.7875C11.8916 20.1902 11.8247 20.6187 11.8247 21.0624L11.8235 21.0612Z" fill="#FAFAFA"/>
    <path d="M10.0568 21.8819C10.0674 21.8819 10.078 21.8819 10.0897 21.8796C9.78096 22.5464 9.10479 23.0089 8.31945 23.0089C7.24416 23.0089 6.37077 22.1355 6.37077 21.0602C6.37077 19.9849 7.24416 19.1104 8.31945 19.1104C9.10362 19.1104 9.77978 19.5729 10.0897 20.242C10.0791 20.2396 10.0686 20.2396 10.0568 20.2396C9.60252 20.2396 9.23627 20.6071 9.23627 21.0602C9.23627 21.5133 9.6037 21.8808 10.0568 21.8808V21.8819Z" fill="#FAFAFA"/>
    <path d="M17.8022 21.8819C17.8128 21.8819 17.8234 21.8819 17.8351 21.8796C17.5264 22.5464 16.8502 23.0089 16.0649 23.0089C14.9896 23.0089 14.1162 22.1355 14.1162 21.0602C14.1162 19.9849 14.9896 19.1104 16.0649 19.1104C16.849 19.1104 17.5252 19.5729 17.8351 20.242C17.8245 20.2396 17.814 20.2396 17.8022 20.2396C17.3479 20.2396 16.9817 20.6071 16.9817 21.0602C16.9817 21.5133 17.3491 21.8808 17.8022 21.8808V21.8819Z" fill="#FAFAFA"/>
    <path d="M19.9916 16.6075L12.4563 19.797L12.4351 19.7876L11.0347 19.2195L7.65032 17.8483L6.25455 17.2825L4.52657 16.5829L4.97382 15.5815L7.74071 16.7942L11.8435 18.5903L12.2508 18.7699L19.5173 15.5815L19.9916 16.6075Z" fill="#FAFAFA"/>
    <path d="M7.81935 32.627C7.81935 32.627 8.32061 33.9441 8.32061 34.234C8.32061 34.524 7.81935 35.8153 7.81935 35.8153C7.81935 35.8153 7.05514 33.6025 7.81935 32.627Z" fill="#FAFAFA"/>
    <path d="M9.90421 32.627C9.90421 32.627 9.40295 33.9441 9.40295 34.234C9.40295 34.524 9.90421 35.8153 9.90421 35.8153C9.90421 35.8153 10.6684 33.6025 9.90421 32.627Z" fill="#FAFAFA"/>
    <path d="M8.6364 34.2211L8.89935 32.627L9.29496 34.2211L8.96509 35.6838L8.6364 34.2211Z" fill="#FAFAFA"/>
    <path d="M14.4554 32.627C14.4554 32.627 14.9567 33.9441 14.9567 34.234C14.9567 34.524 14.4554 35.8153 14.4554 35.8153C14.4554 35.8153 13.6912 33.6025 14.4554 32.627Z" fill="#FAFAFA"/>
    <path d="M16.5403 32.627C16.5403 32.627 16.039 33.9441 16.039 34.234C16.039 34.524 16.5403 35.8153 16.5403 35.8153C16.5403 35.8153 17.3045 33.6025 16.5403 32.627Z" fill="#FAFAFA"/>
    <path d="M15.2725 34.2211L15.5354 32.627L15.931 34.2211L15.6023 35.6838L15.2725 34.2211Z" fill="#FAFAFA"/>
    <path d="M20.3202 23.3165C19.9481 26.0998 18.5864 28.9994 15.0154 32.3943C14.932 32.318 14.8252 31.96 14.3463 32.0903C13.8673 32.2182 13.6525 33.6199 13.6525 33.6199C13.2134 33.9955 12.7474 34.3794 12.252 34.7679C11.7355 34.444 11.2671 34.0542 10.8281 33.6539C10.5499 31.6641 9.82439 31.9729 9.40531 32.3344C9.19753 32.156 9.0367 32.0421 8.73266 32.0856C5.47861 29.024 4.3857 25.8075 4.13097 22.9644C4.47609 23.7685 5.6136 25.932 7.90154 25.932C10.7142 25.932 11.1838 25.1326 11.1838 25.1326L12.252 26.9885L13.3226 25.156C13.3226 25.156 14.6174 26.4485 16.9899 25.885C19.3612 25.3216 19.9199 23.7556 20.3214 23.3165H20.3202Z" fill="#FAFAFA"/>
    <path d="M7.28172 15.8505C11.3 12.9134 16.1306 14.5815 17.1977 15.8505L12.2391 18.0128C12.2391 18.0128 12.2391 18.0128 7.28055 15.8505H7.28172Z" fill="#FAFAFA"/>
    <path d="M19.9916 51.4477V52.3317H4.52657V51.4477C4.52657 51.0768 4.82708 50.7775 5.19686 50.7775C8.50022 50.7775 11.1767 48.0998 11.1767 44.7976V33.5293H13.1735V44.7976C13.1735 48.101 15.8512 50.7775 19.1534 50.7775H19.3189C19.6899 50.7775 19.9892 51.078 19.9892 51.4477H19.9916Z" fill="#FAFAFA"/>
    <path d="M23.7563 19.007C22.8806 18.3144 21.8534 18.4929 21.8534 18.4929L20.6454 13.7315H3.83515L2.6272 18.4929C2.6272 18.4929 1.59886 18.3144 0.724304 19.007L0.949694 18.0667L2.48868 12H21.9931L23.5321 18.0667L23.7563 19.007Z" fill="#FAFAFA"/>
  </g>
  <defs>
    <clipPath id="clip0_131_1921">
      <rect width="163.669" height="64" fill="white"/>
    </clipPath>
  </defs>
</svg>