<svg width="164" height="64" viewBox="0 0 164 64" fill="none" xmlns="http://www.w3.org/2000/svg">
<g id="SipSavvy Logo" clip-path="url(#clip0_57_1109)">
<g id="Group 2">
<path id="Vector" d="M38.5239 46.5528C36.9885 46.5528 35.7066 46.2534 34.6759 45.6536C33.6452 45.0549 32.8669 44.1768 32.3422 43.0205C31.8163 41.8642 31.5216 40.445 31.4594 38.7628L35.4648 37.9739C35.507 38.9623 35.6279 39.8345 35.8275 40.5917C36.0271 41.3489 36.3323 41.9323 36.742 42.342C37.1516 42.7517 37.6928 42.9571 38.3666 42.9571C39.1238 42.9571 39.6603 42.7317 39.9749 42.2786C40.2907 41.8266 40.448 41.2538 40.448 40.56C40.448 39.446 40.1956 38.5315 39.6908 37.8166C39.186 37.1017 38.5134 36.3868 37.6729 35.6719L34.4564 32.8334C33.5525 32.0563 32.8317 31.1887 32.2964 30.2308C31.7599 29.2741 31.4923 28.092 31.4923 26.6821C31.4923 24.6642 32.0804 23.1076 33.259 22.0147C34.4364 20.9218 36.0447 20.3748 38.0849 20.3748C39.2835 20.3748 40.2813 20.5591 41.0807 20.9265C41.8801 21.2951 42.5152 21.8046 42.9883 22.4561C43.4614 23.1076 43.8135 23.8495 44.0448 24.6795C44.2761 25.5106 44.4228 26.3875 44.4862 27.3125L40.5125 28.0063C40.4703 27.208 40.3811 26.492 40.2449 25.8616C40.1075 25.2312 39.8669 24.737 39.5194 24.3789C39.1719 24.0221 38.6625 23.8425 37.9898 23.8425C37.3172 23.8425 36.7643 24.069 36.3968 24.521C36.0282 24.9729 35.8451 25.5352 35.8451 26.2079C35.8451 27.0707 36.0235 27.7797 36.3816 28.3362C36.7384 28.8938 37.2538 29.4666 37.9264 30.0548L41.1124 32.8616C42.163 33.7443 43.0622 34.7809 43.8089 35.9677C44.5555 37.1557 44.9288 38.5914 44.9288 40.2724C44.9288 41.4921 44.6611 42.5744 44.1246 43.5206C43.5882 44.4668 42.8416 45.2075 41.8848 45.744C40.9281 46.2804 39.8082 46.5481 38.5263 46.5481L38.5239 46.5528Z" fill="#671929"/>
<path id="Vector_2" d="M50.3193 46.2064V20.6599H54.9246V46.2064H50.3193Z" fill="#671929"/>
<path id="Vector_3" d="M61.3892 46.2064V20.6599H68.8951C70.4294 20.6599 71.6749 20.944 72.6328 21.511C73.5896 22.0792 74.2939 22.9044 74.7459 23.9868C75.1978 25.0703 75.4244 26.3792 75.4244 27.9135C75.4244 29.5745 75.1403 30.9151 74.5733 31.9352C74.0051 32.9554 73.2116 33.6961 72.1926 34.1586C71.1725 34.6211 69.9693 34.8524 68.5817 34.8524H66.059V46.2064H61.3916H61.3892ZM66.0567 31.5725H67.8234C68.6639 31.5725 69.3213 31.4516 69.7944 31.2098C70.2674 30.968 70.5926 30.5794 70.7722 30.0429C70.9506 29.5064 71.0399 28.7868 71.0399 27.8829C71.0399 26.979 70.9718 26.2066 70.8344 25.6279C70.6971 25.0503 70.4036 24.6242 69.9517 24.3507C69.4997 24.0771 68.7895 23.941 67.8234 23.941H66.0567V31.5737V31.5725Z" fill="#671929"/>
<path id="Vector_4" d="M86.1469 46.5528C84.6114 46.5528 83.3295 46.2534 82.2989 45.6536C81.2682 45.0549 80.4899 44.1768 79.9651 43.0205C79.4392 41.8642 79.1446 40.445 79.0824 38.7628L83.0877 37.9739C83.13 38.9623 83.2509 39.8345 83.4505 40.5917C83.65 41.3489 83.9552 41.9323 84.3649 42.342C84.7746 42.7517 85.3158 42.9571 85.9896 42.9571C86.7468 42.9571 87.2833 42.7317 87.5979 42.2786C87.9136 41.8266 88.0709 41.2538 88.0709 40.56C88.0709 39.446 87.8186 38.5315 87.3138 37.8166C86.809 37.1017 86.1364 36.3868 85.2947 35.6719L82.0782 32.8334C81.1743 32.0563 80.4535 31.1887 79.9182 30.2308C79.3817 29.2741 79.1141 28.092 79.1141 26.6821C79.1141 24.6642 79.7022 23.1076 80.8808 22.0147C82.0582 20.9218 83.6665 20.3748 85.7067 20.3748C86.9053 20.3748 87.9031 20.5591 88.7025 20.9265C89.5008 21.2951 90.137 21.8046 90.6101 22.4561C91.0832 23.1076 91.4353 23.8495 91.6666 24.6795C91.8979 25.5106 92.0446 26.3875 92.108 27.3125L88.1343 28.0063C88.0921 27.208 88.0029 26.492 87.8667 25.8616C87.7293 25.2312 87.4887 24.737 87.1412 24.3789C86.7937 24.0221 86.2843 23.8425 85.6116 23.8425C84.939 23.8425 84.3861 24.069 84.0186 24.521C83.65 24.9729 83.4669 25.5352 83.4669 26.2079C83.4669 27.0707 83.6453 27.7797 84.0034 28.3362C84.3602 28.8938 84.8756 29.4666 85.5482 30.0548L88.7342 32.8616C89.7848 33.7443 90.684 34.7809 91.4307 35.9677C92.1773 37.1557 92.5506 38.5914 92.5506 40.2724C92.5506 41.4921 92.2829 42.5744 91.7464 43.5206C91.21 44.4668 90.4634 45.2075 89.5066 45.744C88.5499 46.2804 87.43 46.5481 86.1481 46.5481L86.1469 46.5528Z" fill="#671929"/>
<path id="Vector_5" d="M95.7035 46.2064L100.812 20.6599H105.796L110.904 46.2064H106.583L105.574 40.3087H101.127L100.086 46.2064H95.7024H95.7035ZM101.601 37.3434H105.07L103.335 26.6198L101.6 37.3434H101.601Z" fill="#671929"/>
<path id="Vector_6" d="M118.127 46.2064L112.987 20.6599H117.119L120.494 38.7321L123.648 20.6599H127.874L122.734 46.2064H118.129H118.127Z" fill="#671929"/>
<path id="Vector_7" d="M136.294 46.2064L131.153 20.6599H135.285L138.66 38.7321L141.814 20.6599H146.04L140.9 46.2064H136.295H136.294Z" fill="#671929"/>
<path id="Vector_8" d="M154.112 46.2064V36.4606L148.94 20.6599H153.293L156.447 30.7836L159.411 20.6599H163.669L158.56 36.4606V46.2064H154.113H154.112Z" fill="#671929"/>
<path id="Vector_9" d="M4.06405 26.6479C2.99228 23.8646 3.35619 20.4286 3.78466 19.3568C3.35619 19.0704 2.44524 18.764 1.51785 19.304C0.716079 19.7712 -0.181956 20.6434 0.0316941 23.7519C0.245344 26.8604 2.35485 30.2213 3.85627 31.5079C5.35769 32.7945 6.96594 33.6691 6.96594 33.5094C6.98589 32.8485 7.57402 32.0796 7.57402 32.0796C7.57402 32.0796 5.16517 29.5064 4.06405 26.6468V26.6479Z" fill="#671929"/>
<path id="Vector_10" d="M20.4975 26.6479C21.5693 23.8646 21.2054 20.4286 20.7769 19.3568C21.2054 19.0704 22.1163 18.764 23.0437 19.304C23.8455 19.7712 24.7435 20.6434 24.5299 23.7519C24.315 26.8616 22.2067 30.2213 20.7053 31.5079C19.2039 32.7945 17.5956 33.6691 17.5956 33.5094C17.5757 32.8485 16.9875 32.0796 16.9875 32.0796C16.9875 32.0796 19.3964 29.5064 20.4975 26.6468V26.6479Z" fill="#671929"/>
<path id="Vector_11" d="M12.4351 19.7878L11.0347 19.2196C11.3927 19.7455 11.6028 20.3782 11.6028 21.0615C11.6028 22.8704 10.1296 24.3425 8.32061 24.3425C6.51163 24.3425 5.03956 22.8716 5.03956 21.0615C5.03956 19.4814 6.16181 18.1584 7.65149 17.8473L6.25572 17.2815C4.92217 18.0152 4.01474 19.4344 4.01474 21.0615C4.01474 23.4351 5.94698 25.3673 8.32061 25.3673C10.6942 25.3673 12.6277 23.4351 12.6277 21.0615C12.6277 20.6189 12.5608 20.1904 12.4363 19.7866L12.4351 19.7878Z" fill="#671929"/>
<path id="Vector_12" d="M11.8235 21.0615C11.8235 23.4351 13.7558 25.3673 16.1306 25.3673C18.5042 25.3673 20.4365 23.4351 20.4365 21.0615C20.4365 19.4344 19.529 18.0152 18.1955 17.2815L16.7997 17.8473C18.2894 18.1584 19.4117 19.4814 19.4117 21.0615C19.4117 22.8704 17.9408 24.3425 16.1306 24.3425C14.3204 24.3425 12.8484 22.8716 12.8484 21.0615C12.8484 20.3782 13.0585 19.7455 13.4165 19.2196L12.0161 19.7878C11.8916 20.1904 11.8247 20.6189 11.8247 21.0626L11.8235 21.0615Z" fill="#671929"/>
<path id="Vector_13" d="M10.0568 21.8819C10.0674 21.8819 10.078 21.8819 10.0897 21.8796C9.78096 22.5464 9.10479 23.0089 8.31945 23.0089C7.24416 23.0089 6.37077 22.1355 6.37077 21.0602C6.37077 19.9849 7.24416 19.1104 8.31945 19.1104C9.10362 19.1104 9.77978 19.5729 10.0897 20.242C10.0791 20.2396 10.0686 20.2396 10.0568 20.2396C9.60253 20.2396 9.23627 20.6071 9.23627 21.0602C9.23627 21.5133 9.6037 21.8808 10.0568 21.8808V21.8819Z" fill="#671929"/>
<path id="Vector_14" d="M17.8022 21.8819C17.8128 21.8819 17.8234 21.8819 17.8351 21.8796C17.5264 22.5464 16.8502 23.0089 16.0649 23.0089C14.9896 23.0089 14.1162 22.1355 14.1162 21.0602C14.1162 19.9849 14.9896 19.1104 16.0649 19.1104C16.849 19.1104 17.5252 19.5729 17.8351 20.242C17.8245 20.2396 17.814 20.2396 17.8022 20.2396C17.3479 20.2396 16.9817 20.6071 16.9817 21.0602C16.9817 21.5133 17.3491 21.8808 17.8022 21.8808V21.8819Z" fill="#671929"/>
<path id="Vector_15" d="M19.9916 16.6075L12.4563 19.797L12.4351 19.7876L11.0347 19.2195L7.65032 17.8483L6.25455 17.2825L4.52657 16.5829L4.97382 15.5815L7.74071 16.7942L11.8435 18.5903L12.2508 18.7699L19.5173 15.5815L19.9916 16.6075Z" fill="#671929"/>
<path id="Vector_16" d="M7.81935 32.6267C7.81935 32.6267 8.32061 33.9438 8.32061 34.2338C8.32061 34.5237 7.81935 35.815 7.81935 35.815C7.81935 35.815 7.05514 33.6022 7.81935 32.6267Z" fill="#671929"/>
<path id="Vector_17" d="M9.90421 32.6267C9.90421 32.6267 9.40295 33.9438 9.40295 34.2338C9.40295 34.5237 9.90421 35.815 9.90421 35.815C9.90421 35.815 10.6684 33.6022 9.90421 32.6267Z" fill="#671929"/>
<path id="Vector_18" d="M8.6364 34.2209L8.89935 32.6267L9.29496 34.2209L8.96509 35.6836L8.6364 34.2209Z" fill="#671929"/>
<path id="Vector_19" d="M14.4554 32.6267C14.4554 32.6267 14.9567 33.9438 14.9567 34.2338C14.9567 34.5237 14.4554 35.815 14.4554 35.815C14.4554 35.815 13.6912 33.6022 14.4554 32.6267Z" fill="#671929"/>
<path id="Vector_20" d="M16.5403 32.6267C16.5403 32.6267 16.039 33.9438 16.039 34.2338C16.039 34.5237 16.5403 35.815 16.5403 35.815C16.5403 35.815 17.3045 33.6022 16.5403 32.6267Z" fill="#671929"/>
<path id="Vector_21" d="M15.2725 34.2209L15.5354 32.6267L15.931 34.2209L15.6023 35.6836L15.2725 34.2209Z" fill="#671929"/>
<path id="Vector_22" d="M20.3202 23.3165C19.9481 26.0998 18.5864 28.9994 15.0154 32.3943C14.932 32.318 14.8252 31.96 14.3463 32.0903C13.8673 32.2182 13.6525 33.6199 13.6525 33.6199C13.2134 33.9955 12.7474 34.3794 12.252 34.7679C11.7355 34.444 11.2671 34.0542 10.8281 33.6539C10.5499 31.6641 9.82439 31.9729 9.40531 32.3344C9.19753 32.156 9.0367 32.0421 8.73266 32.0856C5.47861 29.024 4.3857 25.8075 4.13097 22.9644C4.47609 23.7685 5.6136 25.932 7.90154 25.932C10.7142 25.932 11.1838 25.1326 11.1838 25.1326L12.252 26.9885L13.3226 25.156C13.3226 25.156 14.6174 26.4485 16.9899 25.885C19.3612 25.3216 19.9199 23.7556 20.3214 23.3165H20.3202Z" fill="#671929"/>
<path id="Vector_23" d="M7.28172 15.8505C11.3 12.9134 16.1306 14.5815 17.1977 15.8505L12.2391 18.0128C12.2391 18.0128 12.2391 18.0128 7.28055 15.8505H7.28172Z" fill="#671929"/>
<path id="Vector_24" d="M19.9916 51.4477V52.3317H4.52657V51.4477C4.52657 51.0768 4.82708 50.7775 5.19686 50.7775C8.50022 50.7775 11.1767 48.0998 11.1767 44.7976V33.5293H13.1735V44.7976C13.1735 48.101 15.8512 50.7775 19.1534 50.7775H19.3189C19.6899 50.7775 19.9892 51.078 19.9892 51.4477H19.9916Z" fill="#671929"/>
<path id="Vector_25" d="M23.7563 19.007C22.8806 18.3144 21.8534 18.4929 21.8534 18.4929L20.6454 13.7315H3.83515L2.6272 18.4929C2.6272 18.4929 1.59886 18.3144 0.724304 19.007L0.949694 18.0667L2.48868 12H21.9931L23.5321 18.0667L23.7563 19.007Z" fill="#671929"/>
</g>
</g>
<defs>
<clipPath id="clip0_57_1109">
<rect width="163.669" height="64" fill="white"/>
</clipPath>
</defs>
</svg>
